<?xml version="1.0" encoding="UTF-8" standalone="no" ?>
<!DOCTYPE svg PUBLIC "-//W3C//DTD SVG 1.1//EN" "http://www.w3.org/Graphics/SVG/1.1/DTD/svg11.dtd">
<svg xmlns="http://www.w3.org/2000/svg" xmlns:xlink="http://www.w3.org/1999/xlink" version="1.1" width="1024" height="1024" viewBox="0 0 1024 1024" xml:space="preserve">
<desc>Created with Fabric.js 3.1.0</desc>
<defs>
</defs>
<g transform="matrix(1 0 0 1 512 512)" id="background-logo"  >
<rect style="stroke: none; stroke-width: 1; stroke-dasharray: none; stroke-linecap: butt; stroke-dashoffset: 0; stroke-linejoin: miter; stroke-miterlimit: 4; fill: rgb(242,242,242); fill-rule: nonzero; opacity: 1;"  paint-order="stroke"  x="-512" y="-512" rx="0" ry="0" width="1024" height="1024" />
</g>
<g transform="matrix(1.5745007680491552 0 0 1.5745007680491552 511.9971102959839 512.0783119219768)"  >
<filter id="SVGID_5367" y="-20%" height="140%" x="-20%" width="140%" >
	<feGaussianBlur in="SourceAlpha" stdDeviation="0"></feGaussianBlur>
	<feOffset dx="0" dy="0" result="oBlur" ></feOffset>
	<feFlood flood-color="rgb(0,0,0)" flood-opacity="1"/>
	<feComposite in2="oBlur" operator="in" />
	<feMerge>
		<feMergeNode></feMergeNode>
		<feMergeNode in="SourceGraphic"></feMergeNode>
	</feMerge>
</filter>
<path style="stroke: none; stroke-width: 1; stroke-dasharray: none; stroke-linecap: butt; stroke-dashoffset: 0; stroke-linejoin: miter; stroke-miterlimit: 10; fill: rgb(49,194,252); fill-opacity: 0.97; fill-rule: nonzero; opacity: 1;filter: url(#SVGID_5367);"  paint-order="stroke"  transform=" translate(-253.285, 25.225)" d="M 1.36 -9.69 L 1.36 -9.69 Q 1.24 -10.73 1.24 -11.81 L 1.24 -11.81 Q 1.28 -14.49 2 -17.3 L 2 -17.3 Q 3.04 -21.22 5.61 -24.82 L 5.61 -24.82 L 6.33 -24.22 Q 4.4 -20.7 3.84 -17.14 L 3.84 -17.14 Q 3.6 -15.62 3.64 -14.21 L 3.64 -14.21 Q 3.68 -12.25 4.08 -10.49 L 4.08 -10.49 Q 4.8 -7.45 6.63 -4.74 Q 8.45 -2.04 11.03 -0.16 Q 13.61 1.72 16.96 2.82 Q 20.3 3.92 23.9 3.92 L 23.9 3.92 Q 27.55 3.92 30.51 2.8 Q 33.47 1.68 35.25 -0.12 Q 37.04 -1.92 37.76 -4.32 L 37.76 -4.32 Q 38.16 -5.69 38.16 -7.05 L 38.16 -7.05 Q 38.2 -8.09 37.96 -9.13 L 37.96 -9.13 Q 37.4 -11.57 35.37 -14.03 Q 33.35 -16.5 30.03 -18.38 L 30.03 -18.38 L 16.66 -26.23 Q 10.97 -29.55 8.45 -33.87 L 8.45 -33.87 Q 6.45 -37.28 6.45 -41.52 L 6.45 -41.52 Q 6.45 -42.68 6.61 -43.88 L 6.61 -43.88 Q 7.41 -50.85 12.35 -54.69 Q 17.3 -58.54 25.71 -58.54 L 25.71 -58.54 Q 31.23 -58.54 39.56 -57.7 L 39.56 -57.7 L 45.92 -57.7 L 44.16 -44.36 L 43.4 -44.36 Q 43.36 -48.89 39.84 -51.67 Q 36.32 -54.45 30.31 -54.45 L 30.31 -54.45 Q 25.34 -54.45 22.36 -52.55 Q 19.38 -50.65 19.14 -47.57 L 19.14 -47.57 Q 19.1 -46.85 19.24 -46.19 Q 19.38 -45.52 19.58 -45.02 Q 19.78 -44.52 20.32 -43.96 Q 20.86 -43.4 21.18 -43.08 Q 21.5 -42.76 22.36 -42.22 Q 23.22 -41.68 23.58 -41.46 Q 23.94 -41.24 25.02 -40.66 Q 26.11 -40.08 26.43 -39.88 L 26.43 -39.88 L 41.76 -31.19 Q 45.64 -28.99 48.25 -26.03 Q 50.85 -23.06 51.97 -19.86 L 51.97 -19.86 Q 53.01 -16.9 53.01 -13.77 L 53.01 -13.77 Q 53.01 -13.53 53.01 -13.29 L 53.01 -13.29 Q 52.93 -9.93 51.69 -6.81 Q 50.45 -3.68 48.07 -0.86 Q 45.68 1.96 42.46 4.02 Q 39.24 6.09 34.93 7.31 Q 30.63 8.53 25.79 8.53 L 25.79 8.53 Q 20.46 8.53 15.98 7.07 Q 11.49 5.61 8.49 3.12 Q 5.49 0.64 3.62 -2.68 Q 1.76 -6.01 1.36 -9.69 Z M 56.66 -42.12 L 55.81 -42.12 L 55.81 -58.98 Q 57.02 -58.46 59.98 -58 Q 62.94 -57.54 65.46 -57.5 L 65.46 -57.5 L 101.82 -57.5 Q 104.34 -57.54 107.3 -58 Q 110.27 -58.46 111.47 -58.98 L 111.47 -58.98 L 111.47 -42.12 L 110.67 -42.12 L 110.67 -42.76 Q 110.67 -47.65 107.89 -50.47 Q 105.1 -53.29 100.14 -53.37 L 100.14 -53.37 L 92.09 -53.37 L 92.09 -5.93 Q 92.17 -3.8 93.69 -2.3 Q 95.21 -0.8 97.33 -0.8 L 97.33 -0.8 L 98.38 -0.8 L 98.38 0 L 68.95 0 L 68.95 -0.8 L 69.99 -0.8 Q 72.11 -0.8 73.63 -2.26 Q 75.15 -3.72 75.23 -5.85 L 75.23 -5.85 L 75.23 -53.37 L 67.19 -53.37 Q 62.22 -53.29 59.44 -50.47 Q 56.66 -47.65 56.66 -42.76 L 56.66 -42.76 L 56.66 -42.12 Z M 116.03 -56.58 L 114.67 -56.58 L 114.67 -57.42 L 142.82 -57.42 L 142.82 -56.58 L 141.5 -56.58 Q 139.74 -56.58 138.48 -55.45 Q 137.21 -54.33 137.17 -52.65 L 137.17 -52.65 L 137.17 -21.34 Q 137.17 -12.73 141.12 -7.91 Q 145.06 -3.08 152.11 -3.08 Q 159.16 -3.08 163.12 -7.63 Q 167.08 -12.17 167.12 -20.3 L 167.12 -20.3 L 167.12 -52.65 Q 167.04 -54.33 165.8 -55.45 Q 164.56 -56.58 162.8 -56.58 L 162.8 -56.58 L 161.44 -56.58 L 161.44 -57.42 L 179.9 -57.42 L 179.9 -56.58 L 178.57 -56.58 Q 176.81 -56.58 175.57 -55.47 Q 174.33 -54.37 174.21 -52.69 L 174.21 -52.69 L 174.21 -21.1 Q 174.21 -10.61 167.8 -4.72 Q 161.4 1.16 149.67 1.16 L 149.67 1.16 Q 134.93 1.16 127.64 -4.58 Q 120.36 -10.33 120.36 -20.94 L 120.36 -20.94 L 120.36 -52.53 Q 120.32 -54.29 119.08 -55.43 Q 117.83 -56.58 116.03 -56.58 L 116.03 -56.58 Z M 213.77 0 L 182.7 0 L 182.74 -0.8 L 183.78 -0.8 Q 185.94 -0.8 187.46 -2.32 Q 188.98 -3.84 189.02 -5.97 L 189.02 -5.97 L 189.02 -51.89 Q 189.02 -53.85 187.44 -55.21 Q 185.86 -56.58 183.78 -56.58 L 183.78 -56.58 L 182.74 -56.58 L 182.74 -57.42 L 213.77 -57.38 Q 229.18 -57.38 237.83 -49.79 Q 246.48 -42.2 246.48 -28.67 Q 246.48 -15.13 237.83 -7.57 Q 229.18 0 213.77 0 L 213.77 0 Z M 205.84 -53.29 L 205.84 -4.12 L 212.13 -4.12 Q 219.81 -4.12 224.14 -10.61 Q 228.46 -17.1 228.46 -28.67 Q 228.46 -40.24 224.14 -46.77 Q 219.81 -53.29 212.13 -53.29 L 212.13 -53.29 L 205.84 -53.29 Z M 279.51 0 L 250.08 0 L 250.12 -0.8 L 251.17 -0.8 Q 253.33 -0.8 254.85 -2.32 Q 256.37 -3.84 256.41 -5.97 L 256.41 -5.97 L 256.41 -51.45 Q 256.33 -53.57 254.81 -55.07 Q 253.29 -56.58 251.17 -56.58 L 251.17 -56.58 L 250.12 -56.58 L 250.08 -57.42 L 279.51 -57.42 L 279.51 -56.58 L 278.47 -56.58 Q 276.35 -56.58 274.81 -55.09 Q 273.27 -53.61 273.23 -51.49 L 273.23 -51.49 L 273.23 -5.97 Q 273.27 -3.84 274.79 -2.32 Q 276.31 -0.8 278.47 -0.8 L 278.47 -0.8 L 279.51 -0.8 L 279.51 0 Z M 291.98 -6.75 Q 282.92 -14.65 282.92 -28.71 Q 282.92 -42.76 291.98 -50.65 Q 301.05 -58.54 316.95 -58.54 Q 332.84 -58.54 341.93 -50.65 Q 351.02 -42.76 351.02 -28.71 Q 351.02 -14.65 341.93 -6.75 Q 332.84 1.16 316.95 1.16 Q 301.05 1.16 291.98 -6.75 Z M 305.22 -47.65 Q 301.01 -40.84 301.01 -28.71 Q 301.01 -16.58 305.22 -9.77 Q 309.42 -2.96 316.95 -2.96 Q 324.48 -2.96 328.7 -9.77 Q 332.92 -16.58 332.92 -28.71 Q 332.92 -40.84 328.7 -47.65 Q 324.48 -54.45 316.95 -54.45 Q 309.42 -54.45 305.22 -47.65 Z M 378.89 -7.29 L 352.58 -7.29 L 352.58 -8.09 L 394.95 -50.33 L 395.71 -50.33 L 395.71 -15.9 L 399.27 -15.9 Q 401.39 -15.9 402.57 -16.7 Q 403.75 -17.5 404.55 -19.18 L 404.55 -19.18 L 405.4 -19.18 L 402.83 -7.29 L 395.71 -7.29 L 395.71 3.04 Q 395.75 4.8 397.07 6.09 Q 398.39 7.37 400.23 7.37 L 400.23 7.37 L 401.11 7.37 L 401.11 8.21 L 373.44 8.21 L 373.48 7.37 L 374.37 7.37 Q 376.21 7.37 377.53 6.15 Q 378.85 4.92 378.89 3.12 L 378.89 3.12 L 378.89 -7.29 Z M 378.89 -27.99 L 366.44 -15.9 L 378.89 -15.9 L 378.89 -27.99 Z M 431.58 -7.29 L 405.28 -7.29 L 405.28 -8.09 L 447.64 -50.33 L 448.4 -50.33 L 448.4 -15.9 L 451.96 -15.9 Q 454.08 -15.9 455.26 -16.7 Q 456.45 -17.5 457.25 -19.18 L 457.25 -19.18 L 458.09 -19.18 L 455.52 -7.29 L 448.4 -7.29 L 448.4 3.04 Q 448.44 4.8 449.76 6.09 Q 451.08 7.37 452.92 7.37 L 452.92 7.37 L 453.8 7.37 L 453.8 8.21 L 426.14 8.21 L 426.18 7.37 L 427.06 7.37 Q 428.9 7.37 430.22 6.15 Q 431.54 4.92 431.58 3.12 L 431.58 3.12 L 431.58 -7.29 Z M 431.58 -27.99 L 419.13 -15.9 L 431.58 -15.9 L 431.58 -27.99 Z M 461.93 -49.05 L 459.61 -29.95 L 460.45 -29.95 Q 461.37 -32.47 462.77 -33.65 Q 464.17 -34.83 466.58 -34.83 L 466.58 -34.83 L 492.84 -34.83 L 488.6 -25.75 Q 486.11 -20.5 479.95 -9.47 Q 473.78 1.56 469.7 8.21 L 469.7 8.21 L 483.63 8.21 Q 485.51 1.56 489.04 -8.97 Q 492.56 -19.5 494.88 -24.9 L 494.88 -24.9 L 505.33 -49.05 L 461.93 -49.05 Z" stroke-linecap="round" />
</g>
</svg>